<svg
   fill="#FFBD00"
   width="498.91812"
   height="499.51373"
   viewBox="0 0 498.91812 499.51373"
   xmlns="http://www.w3.org/2000/svg">
  <g transform="translate(-0.50721204,-0.12628509)">
    <path
       d="M 227.36905,499.01132 C 176.20282,493.59835 132.62497,475.85714 92.5,444.10406 82.977661,436.56851 63.842754,417.34988 55.570587,407.01306 26.787657,371.04621 9.6129929,331.34847 2.3507266,284 c -2.45801938,-16.02578 -2.45801938,-51.97422 0,-68 C 11.1016,158.94612 34.417098,112.35702 73.931182,72.967713 116.24106,30.791437 168.77271,6.5808006 230.37395,0.86681359 253.75054,-1.301545 286.00087,1.3952435 310.9473,7.604398 395.45869,28.639241 464.82888,95.082217 489.37188,178.5 c 7.61891,25.89548 10.08406,43.55065 10.05316,72 -0.0314,28.91852 -2.86415,48.05166 -10.98667,74.20697 -12.10974,38.99456 -32.99941,73.10638 -63.10712,103.05085 -37.14147,36.94009 -84.95346,60.9727 -137.83125,69.28061 -14.7397,2.31583 -46.91161,3.37139 -60.13095,1.97289 z m 45.20727,-20.0743 C 341.33197,472.24645 402.94307,435.01766 442.1026,376.5 c 8.94407,-13.36548 20.94742,-38.19667 26.17162,-54.14094 15.25848,-46.56884 15.48352,-96.6235 0.64274,-142.96151 C 448.90411,116.91058 401.62425,64.756432 341.66816,39.030122 215.74783,-15.00051 71.863748,50.649428 30.600117,180.96103 c -30.64416726,96.77506 6.824684,203.3714 91.456453,260.18741 43.9323,29.49314 97.51831,42.94613 150.51975,37.78858 z m -85.87239,-48.53313 c -3.9293,-2.13048 -4.57619,-4.5622 -5.78238,-21.73633 -0.58589,-8.34216 -1.50477,-16.32601 -2.04195,-17.74188 -0.60784,-1.6021 -2.75226,-3.43546 -5.67815,-4.85451 -28.01462,-13.58699 -49.52489,-40.38651 -57.08779,-71.12536 L 113.29757,303.5 l -8.39879,0.36273 c -7.970812,0.34425 -8.596488,0.54119 -12.278769,3.86484 -4.1136,3.71296 -12.182262,7.83488 -17.366352,8.8717 -2.509806,0.50196 -3.623701,0.1216 -5.687371,-1.94207 -4.905096,-4.9051 -2.824371,-9.32772 5.765441,-12.25456 2.566266,-0.87442 4.914187,-1.99152 5.217602,-2.48246 0.303415,-0.49093 -1.01685,-2.26978 -2.933923,-3.95299 -4.725749,-4.14927 -6.973121,-10.34511 -6.437637,-17.7481 0.755794,-10.44874 8.089301,-16.85924 18.316459,-16.01113 C 99.413311,263.03053 104.5,269.82442 104.5,282.25 V 290 h 4.23095 c 4.80543,0 4.37543,0.91663 6.1922,-13.19998 4.08403,-31.7335 24.69831,-60.50879 55.39297,-77.32255 l 6.81611,-3.73369 1.58178,2.37811 c 1.47459,2.21696 23.79743,24.89362 24.47725,24.86521 0.16981,-0.007 3.23374,-0.93038 6.80874,-2.05174 20.01565,-6.27826 43.84896,-8.90528 63.82985,-7.03564 6.96858,0.65206 15.55399,1.80048 19.07869,2.55205 3.5247,0.75157 7.19417,1.06988 8.15436,0.70736 2.11703,-0.79928 14.9114,-14.89006 19.28352,-21.23745 5.57177,-8.08901 21.3035,-20.8409 29.60012,-23.99337 8.70994,-3.30951 18.45008,-1.70093 23.39854,3.86426 5.00509,5.62888 5.97628,18.90923 2.59589,35.49709 -1.13246,5.5571 -1.81,11.09605 -1.50562,12.30876 0.30437,1.21272 2.50175,3.34675 4.88306,4.74229 12.12652,7.10662 19.39788,17.38624 22.57172,31.90996 2.89354,13.24105 3.79709,14.28832 13.51497,15.66454 7.68943,1.08896 11.23543,3.00912 12.70758,6.88116 0.56288,1.48048 1.96978,10.00518 3.12644,18.94378 1.78804,13.81778 1.90319,16.62543 0.76875,18.74514 -1.51478,2.83039 -6.71872,5.01609 -23.50787,9.87353 -6.05,1.75038 -11.54929,3.5291 -12.22064,3.95272 -0.67135,0.42361 -3.02948,4.23931 -5.24029,8.47933 -8.14638,15.6236 -19.58836,26.84088 -35.53907,34.84115 -15.04905,7.54804 -15.51109,8.3502 -15.9507,27.69259 -0.41541,18.27782 -2.01032,24.01238 -7.15015,25.70867 -5.22762,1.72527 -17.728,0.88408 -20.20749,-1.35983 C 309.78185,427.4926 308,420.87421 308,414.10423 c 0,-6.01478 -1.43636,-9.52639 -4.46013,-10.90411 -1.41889,-0.64649 -9.53198,-0.81867 -22.13973,-0.46986 -12.79467,0.35398 -25.97009,0.0652 -36.90014,-0.80891 -9.35,-0.74771 -19.42276,-1.37339 -22.3839,-1.39041 -7.63844,-0.0439 -8.66618,1.68808 -10.06929,16.96906 -0.83616,9.10644 -1.50299,12.30141 -2.76546,13.25 -2.45113,1.84173 -19.01052,1.58787 -22.57742,-0.34611 z M 90.984687,281.94113 c 0.0084,-1.95738 -0.566694,-4.35481 -1.278035,-5.32763 -1.232093,-1.68499 -1.404999,-1.67835 -3.650754,0.14015 -2.76968,2.24275 -2.338724,5.96352 1.087572,9.38982 2.564066,2.56407 3.818006,1.19224 3.841217,-4.20234 z m 274.943673,-4.70026 c 5.97836,-3.69614 11.0275,-12.84758 9.24584,-16.75788 -2.69057,-5.90516 -9.98772,-5.72901 -13.07141,0.31553 -3.97737,7.79628 -10.32659,7.9768 -15.39,0.43756 C 344.31044,257.65906 343.34484,257 340.50648,257 c -2.4628,0 -3.93046,0.72354 -5.49042,2.70672 -2.49123,3.16708 -2.12319,5.91477 1.54292,11.51899 6.28673,9.61024 19.25758,12.2668 29.36938,6.01516 z M 197.55765,199.75 c -8.33043,-8.36905 -14.26095,-17.87733 -18.24385,-29.25 -2.59644,-7.41382 -2.79962,-9.0991 -2.77288,-23 0.0265,-13.79376 0.25311,-15.64333 2.81754,-23 10.0739,-28.899442 33.19832,-46.8994 64.18999,-49.965237 23.79983,-2.354387 49.61596,9.743124 65.01292,30.465237 19.34848,26.0403 17.16024,66.38454 -4.93577,91 -6.39938,7.12906 -6.25416,7.0768 -15.21536,5.47498 -4.35063,-0.77767 -13.68165,-1.72371 -20.7356,-2.1023 -12.37476,-0.66416 -12.80562,-0.76185 -12.26365,-2.78051 0.30893,-1.15069 0.56785,-3.53733 0.57536,-5.30363 0.0122,-2.87509 0.41646,-3.31992 3.85953,-4.24704 9.64618,-2.59745 17.29698,-12.51392 17.29698,-22.41923 0,-6.44654 -1.76483,-10.98317 -6.26776,-16.11179 -4.83548,-5.50737 -10.26941,-7.57498 -21.7003,-8.25695 -8.82485,-0.5265 -9.8873,-0.81218 -12.41285,-3.33773 -4.75441,-4.75442 -3.25367,-12.50552 2.99542,-15.47091 2.54426,-1.20733 5.44839,-1.5521 10.79817,-1.28195 8.74908,0.44181 12.09223,2.78211 13.11549,9.18126 1.12634,7.04372 6.48664,9.77797 11.38812,5.80898 1.79278,-1.4517 2.24508,-2.75637 2.11414,-6.09821 -0.36546,-9.32661 -7.88775,-18.91644 -16.68342,-21.26892 C 256.37697,106.68601 256,106.32127 256,103.44182 256,95.734258 251.73939,91.007989 246.56476,92.975377 243.30662,94.214121 242,96.921637 242,102.43426 c 0,4.06539 -0.24657,4.56677 -2.25,4.57512 -3.65316,0.0152 -12.55394,5.73415 -15.1904,9.76011 -6.15512,9.39905 -5.58308,20.51408 1.46803,28.52456 5.62063,6.38537 9.63084,7.9929 21.68351,8.69201 8.91009,0.51683 10.53268,0.89437 12.73469,2.96305 4.65926,4.37715 4.2996,11.1374 -0.81287,15.27865 -1.65519,1.34076 -4.11012,1.73275 -10.95988,1.75 -8.43621,0.0213 -8.95631,-0.10715 -11.75,-2.90084 C 235.25432,169.40817 234,167.08316 234,165.65871 c 0,-3.84779 -0.9922,-5.60331 -4.06498,-7.19231 -5.78251,-2.99025 -10.80801,2.06663 -9.41788,9.47668 1.62395,8.65639 8.88558,16.78982 17.02472,19.06864 L 242,188.25992 v 4.67004 c 0,2.56852 0.46913,5.13917 1.04251,5.71255 0.72335,0.72335 -1.64929,1.4151 -7.75,2.25952 -4.83588,0.66935 -13.14906,2.31522 -18.47373,3.65749 C 211.49411,205.90178 206.6058,207 205.95588,207 c -0.64993,0 -4.42913,-3.2625 -8.39823,-7.25 z"/>
  </g>
</svg>
